<svg width="25" height="24" viewBox="0 0 25 24" fill="none" xmlns="http://www.w3.org/2000/svg">
<path d="M12.6357 2.16094C15.842 2.16094 16.2217 2.175 17.4826 2.23125C18.6545 2.28281 19.2873 2.47969 19.7092 2.64375C20.267 2.85938 20.6701 3.12188 21.0873 3.53906C21.5092 3.96094 21.767 4.35938 21.9826 4.91719C22.1467 5.33906 22.3436 5.97656 22.3951 7.14375C22.4514 8.40937 22.4654 8.78906 22.4654 11.9906C22.4654 15.1969 22.4514 15.5766 22.3951 16.8375C22.3436 18.0094 22.1467 18.6422 21.9826 19.0641C21.767 19.6219 21.5045 20.025 21.0873 20.4422C20.6654 20.8641 20.267 21.1219 19.7092 21.3375C19.2873 21.5016 18.6498 21.6984 17.4826 21.75C16.217 21.8062 15.8373 21.8203 12.6357 21.8203C9.42949 21.8203 9.04981 21.8062 7.78887 21.75C6.61699 21.6984 5.98418 21.5016 5.5623 21.3375C5.00449 21.1219 4.60137 20.8594 4.18418 20.4422C3.7623 20.0203 3.50449 19.6219 3.28887 19.0641C3.1248 18.6422 2.92793 18.0047 2.87637 16.8375C2.82012 15.5719 2.80605 15.1922 2.80605 11.9906C2.80605 8.78438 2.82012 8.40469 2.87637 7.14375C2.92793 5.97187 3.1248 5.33906 3.28887 4.91719C3.50449 4.35938 3.76699 3.95625 4.18418 3.53906C4.60605 3.11719 5.00449 2.85938 5.5623 2.64375C5.98418 2.47969 6.62168 2.28281 7.78887 2.23125C9.04981 2.175 9.42949 2.16094 12.6357 2.16094ZM12.6357 0C9.37793 0 8.97012 0.0140625 7.69043 0.0703125C6.41543 0.126563 5.53887 0.332812 4.77949 0.628125C3.9873 0.9375 3.31699 1.34531 2.65137 2.01562C1.98105 2.68125 1.57324 3.35156 1.26387 4.13906C0.968555 4.90313 0.762305 5.775 0.706055 7.05C0.649805 8.33437 0.635742 8.74219 0.635742 12C0.635742 15.2578 0.649805 15.6656 0.706055 16.9453C0.762305 18.2203 0.968555 19.0969 1.26387 19.8563C1.57324 20.6484 1.98105 21.3188 2.65137 21.9844C3.31699 22.65 3.98731 23.0625 4.77481 23.3672C5.53887 23.6625 6.41074 23.8687 7.68574 23.925C8.96543 23.9812 9.37324 23.9953 12.6311 23.9953C15.8889 23.9953 16.2967 23.9812 17.5764 23.925C18.8514 23.8687 19.7279 23.6625 20.4873 23.3672C21.2748 23.0625 21.9451 22.65 22.6107 21.9844C23.2764 21.3188 23.6889 20.6484 23.9936 19.8609C24.2889 19.0969 24.4951 18.225 24.5514 16.95C24.6076 15.6703 24.6217 15.2625 24.6217 12.0047C24.6217 8.74688 24.6076 8.33906 24.5514 7.05938C24.4951 5.78438 24.2889 4.90781 23.9936 4.14844C23.6982 3.35156 23.2904 2.68125 22.6201 2.01562C21.9545 1.35 21.2842 0.9375 20.4967 0.632812C19.7326 0.3375 18.8607 0.13125 17.5857 0.075C16.3014 0.0140625 15.8936 0 12.6357 0Z" fill="white" fill-opacity="0.96"/>
<path d="M12.6358 5.83594C9.23265 5.83594 6.47171 8.59688 6.47171 12C6.47171 15.4031 9.23265 18.1641 12.6358 18.1641C16.0389 18.1641 18.7998 15.4031 18.7998 12C18.7998 8.59688 16.0389 5.83594 12.6358 5.83594ZM12.6358 15.9984C10.428 15.9984 8.63733 14.2078 8.63733 12C8.63733 9.79219 10.428 8.00156 12.6358 8.00156C14.8436 8.00156 16.6342 9.79219 16.6342 12C16.6342 14.2078 14.8436 15.9984 12.6358 15.9984Z" fill="white" fill-opacity="0.96"/>
<path d="M20.4826 5.59214C20.4826 6.38902 19.8358 7.0312 19.0436 7.0312C18.2467 7.0312 17.6045 6.38433 17.6045 5.59214C17.6045 4.79526 18.2514 4.15308 19.0436 4.15308C19.8358 4.15308 20.4826 4.79995 20.4826 5.59214Z" fill="white" fill-opacity="0.96"/>
</svg>
