<svg width="25" height="24" viewBox="0 0 25 24" fill="none" xmlns="http://www.w3.org/2000/svg">
<path d="M22.8592 0H2.40762C1.42793 0 0.635742 0.773438 0.635742 1.72969V22.2656C0.635742 23.2219 1.42793 24 2.40762 24H22.8592C23.8389 24 24.6357 23.2219 24.6357 22.2703V1.72969C24.6357 0.773438 23.8389 0 22.8592 0ZM7.75605 20.4516H4.19355V8.99531H7.75605V20.4516ZM5.9748 7.43438C4.83105 7.43438 3.90762 6.51094 3.90762 5.37187C3.90762 4.23281 4.83105 3.30937 5.9748 3.30937C7.11387 3.30937 8.0373 4.23281 8.0373 5.37187C8.0373 6.50625 7.11387 7.43438 5.9748 7.43438ZM21.0873 20.4516H17.5295V14.8828C17.5295 13.5562 17.5061 11.8453 15.6779 11.8453C13.8264 11.8453 13.5451 13.2937 13.5451 14.7891V20.4516H9.99199V8.99531H13.4045V10.5609H13.4514C13.9248 9.66094 15.0873 8.70938 16.817 8.70938C20.4217 8.70938 21.0873 11.0813 21.0873 14.1656V20.4516Z" fill="white" fill-opacity="0.96"/>
</svg>
