<svg width="21" height="20" viewBox="0 0 21 20" fill="none" xmlns="http://www.w3.org/2000/svg">
<g clip-path="url(#clip0_220_2421)">
<path d="M10.5 8.18179V12.0545H15.8818C15.6455 13.3 14.9363 14.3546 13.8727 15.0636L17.1181 17.5818C19.009 15.8364 20.0999 13.2728 20.0999 10.2273C20.0999 9.51826 20.0363 8.83638 19.9181 8.1819L10.5 8.18179Z" fill="black" fill-opacity="0.4"/>
<path d="M4.89551 11.9034L4.16354 12.4637L1.57259 14.4818C3.21804 17.7454 6.59052 20 10.4996 20C13.1995 20 15.4635 19.1091 17.1181 17.5818L13.8727 15.0636C12.9818 15.6636 11.845 16.0273 10.4996 16.0273C7.89959 16.0273 5.69057 14.2728 4.8996 11.9091L4.89551 11.9034Z" fill="black" fill-opacity="0.4"/>
<path d="M1.57265 5.51819C0.890868 6.86359 0.5 8.38179 0.5 9.99994C0.5 11.6181 0.89081 13.1364 1.57259 14.4818C1.57259 14.4908 4.89998 11.8999 4.89998 11.8999C4.69998 11.2999 4.58176 10.6636 4.58176 9.99984C4.58176 9.33612 4.69998 8.69979 4.89998 8.0998L1.57265 5.51819Z" fill="black" fill-opacity="0.4"/>
<path d="M10.4998 3.98182C11.9725 3.98182 13.2816 4.49089 14.3271 5.47272L17.1907 2.60912C15.4543 0.990971 13.1998 0 10.4998 0C6.59072 0 3.2181 2.24545 1.57265 5.51819L4.89998 8.0998C5.69084 5.73614 7.8998 3.98182 10.4998 3.98182Z" fill="black" fill-opacity="0.4"/>
</g>
<defs>
<clipPath id="clip0_220_2421">
<rect width="20" height="20" fill="white" transform="translate(0.5)"/>
</clipPath>
</defs>
</svg>
