<svg width="99" height="32" viewBox="0 0 99 32" fill="none" xmlns="http://www.w3.org/2000/svg">
<path d="M0 17.8399C0 22.6626 2.10962 27.0126 5.49037 30.0822C7.29248 30.6769 9.22511 31 11.2382 31C21.0086 31 28.9286 23.3861 28.9286 13.9934C28.9286 9.40103 27.0353 5.23489 23.9567 2.17388C21.9633 1.41593 19.7911 1 17.517 1C7.84313 1 0 8.53996 0 17.8399Z" fill="black" fill-opacity="0.9"/>
<path d="M37.5587 9.96V7.8H49.1287V9.96H44.5587V22H42.1287V9.96H37.5587ZM58.0206 15.13V19.27C58.0206 19.81 58.0406 20.3 58.1006 20.75C58.1506 21.21 58.2006 21.53 58.2606 21.72L58.3506 22H56.1306C56.0206 21.67 55.9406 21.2 55.8806 20.58C55.1406 21.7 53.9406 22.25 52.2906 22.25C51.1406 22.25 50.2506 22 49.6306 21.48C49.0106 20.96 48.7006 20.23 48.7006 19.29C48.7006 18.85 48.7706 18.45 48.9206 18.1C49.0706 17.75 49.2606 17.47 49.4906 17.25C49.7106 17.03 50.0006 16.84 50.3406 16.68C50.6806 16.52 51.0106 16.41 51.3206 16.33C51.6206 16.25 51.9706 16.18 52.3706 16.12C52.5606 16.1 52.8106 16.07 53.1106 16.03C53.4106 15.99 53.6606 15.96 53.8406 15.94C54.0206 15.92 54.2306 15.88 54.4706 15.83C54.7106 15.79 54.8906 15.73 55.0306 15.66C55.1706 15.6 55.3006 15.51 55.4406 15.41C55.5706 15.31 55.6706 15.18 55.7306 15.02C55.7906 14.87 55.8206 14.69 55.8206 14.48C55.8206 14.32 55.7806 14.16 55.7106 14C55.6306 13.84 55.5206 13.68 55.3606 13.52C55.2006 13.36 54.9706 13.24 54.6806 13.14C54.3806 13.04 54.0406 12.99 53.6506 12.99C52.9606 12.99 52.4206 13.14 52.0306 13.42C51.6306 13.7 51.3906 14.1 51.3106 14.62H49.1306C49.1506 14.3 49.2006 14 49.3006 13.71C49.4006 13.42 49.5606 13.13 49.7806 12.83C50.0006 12.54 50.2706 12.29 50.6006 12.08C50.9206 11.87 51.3406 11.7 51.8606 11.56C52.3806 11.43 52.9606 11.36 53.6206 11.36C55.1306 11.36 56.2406 11.7 56.9506 12.38C57.6606 13.06 58.0206 13.98 58.0206 15.13ZM52.8006 17.6C52.5406 17.66 52.3106 17.72 52.1206 17.78C51.9206 17.85 51.7406 17.94 51.5606 18.06C51.3806 18.18 51.2406 18.34 51.1506 18.53C51.0506 18.72 51.0106 18.94 51.0106 19.19C51.0106 19.67 51.1706 20.03 51.5106 20.29C51.8406 20.55 52.3206 20.67 52.9606 20.67C53.9106 20.67 54.6206 20.39 55.1006 19.82C55.5806 19.26 55.8206 18.44 55.8206 17.38V16.6C55.7406 16.69 55.6406 16.77 55.5406 16.84C55.4406 16.91 55.3106 16.97 55.1606 17.03C55.0006 17.09 54.8706 17.14 54.7706 17.18C54.6706 17.22 54.5106 17.26 54.2906 17.31C54.0706 17.36 53.9206 17.39 53.8306 17.41C53.7406 17.43 53.5606 17.46 53.3006 17.51C53.0306 17.56 52.8606 17.59 52.8006 17.6ZM60.0381 22V7.8H62.3081V13.12C63.0581 11.95 64.1981 11.36 65.7381 11.36C66.6481 11.36 67.4381 11.61 68.1181 12.09C68.7881 12.57 69.2881 13.22 69.6281 14.04C69.9681 14.86 70.1381 15.78 70.1381 16.81C70.1381 17.84 69.9681 18.76 69.6381 19.57C69.2981 20.39 68.7981 21.04 68.1281 21.52C67.4481 22.01 66.6581 22.25 65.7381 22.25C64.1981 22.25 63.0481 21.67 62.3081 20.51V22H60.0381ZM62.3081 16.81C62.3081 17.96 62.5581 18.85 63.0681 19.47C63.5781 20.09 64.2481 20.4 65.0881 20.4C65.9181 20.4 66.5881 20.09 67.0981 19.47C67.6081 18.85 67.8681 17.96 67.8681 16.81C67.8681 15.67 67.6081 14.78 67.0981 14.15C66.5881 13.53 65.9181 13.21 65.0881 13.21C64.2481 13.21 63.5781 13.53 63.0681 14.15C62.5581 14.78 62.3081 15.67 62.3081 16.81ZM78.3073 22.32C76.2673 22.32 74.6173 21.64 73.3573 20.27C72.0973 18.9 71.4773 17.11 71.4773 14.9C71.4773 12.7 72.0973 10.91 73.3573 9.54C74.6173 8.17 76.2673 7.48 78.3073 7.48C80.3373 7.48 81.9773 8.17 83.2373 9.54C84.4873 10.91 85.1173 12.7 85.1173 14.9C85.1173 17.11 84.4873 18.9 83.2373 20.27C81.9773 21.64 80.3373 22.32 78.3073 22.32ZM78.3073 20.21C78.8673 20.21 79.4073 20.1 79.9273 19.88C80.4373 19.66 80.8973 19.34 81.3173 18.92C81.7373 18.5 82.0673 17.94 82.3073 17.25C82.5473 16.56 82.6773 15.78 82.6773 14.9C82.6773 14.03 82.5473 13.25 82.3073 12.56C82.0673 11.87 81.7373 11.31 81.3173 10.89C80.8973 10.47 80.4373 10.14 79.9273 9.92C79.4073 9.7 78.8673 9.59 78.3073 9.59C77.7373 9.59 77.1973 9.7 76.6773 9.92C76.1573 10.14 75.6973 10.47 75.2773 10.89C74.8573 11.31 74.5273 11.87 74.2873 12.56C74.0373 13.25 73.9173 14.03 73.9173 14.9C73.9173 15.78 74.0373 16.56 74.2873 17.25C74.5273 17.94 74.8573 18.5 75.2773 18.92C75.6973 19.34 76.1573 19.66 76.6773 19.88C77.1973 20.1 77.7373 20.21 78.3073 20.21ZM92.1945 22.32C90.3945 22.32 89.0045 21.91 88.0045 21.09C87.0045 20.27 86.5145 19.17 86.5145 17.8H89.0345C89.0345 18.65 89.3145 19.29 89.8945 19.72C90.4645 20.15 91.2345 20.36 92.2145 20.36C93.1445 20.36 93.9045 20.17 94.4945 19.79C95.0745 19.41 95.3745 18.83 95.3745 18.04C95.3745 17.88 95.3545 17.74 95.3245 17.6C95.2945 17.47 95.2545 17.35 95.2145 17.24C95.1745 17.14 95.0945 17.04 94.9945 16.94C94.8845 16.84 94.7845 16.76 94.7045 16.69C94.6145 16.62 94.4845 16.55 94.3045 16.47C94.1245 16.4 93.9645 16.34 93.8345 16.29C93.6945 16.24 93.5045 16.18 93.2445 16.11C92.9845 16.05 92.7545 15.99 92.5745 15.95C92.3945 15.91 92.1345 15.84 91.7945 15.76C91.4545 15.68 91.1645 15.62 90.9445 15.56C90.7145 15.5 90.4445 15.43 90.1345 15.33C89.8145 15.24 89.5545 15.15 89.3445 15.06C89.1245 14.98 88.8945 14.87 88.6345 14.74C88.3745 14.62 88.1645 14.48 87.9945 14.34C87.8245 14.2 87.6545 14.04 87.4745 13.85C87.2945 13.67 87.1645 13.47 87.0645 13.25C86.9645 13.04 86.8745 12.8 86.8145 12.53C86.7545 12.26 86.7245 11.97 86.7245 11.66C86.7245 10.42 87.2145 9.41 88.1945 8.64C89.1745 7.87 90.4545 7.48 92.0345 7.48C93.6645 7.48 94.9945 7.89 96.0145 8.7C97.0345 9.52 97.5545 10.59 97.5545 11.92H95.1645C95.1645 11.18 94.8845 10.59 94.3245 10.14C93.7645 9.69 93.0145 9.46 92.0745 9.46C91.2045 9.46 90.4945 9.65 89.9545 10.02C89.4045 10.4 89.1345 10.93 89.1345 11.62C89.1345 11.85 89.1545 12.05 89.2145 12.22C89.2745 12.39 89.3845 12.54 89.5445 12.68C89.7045 12.82 89.8645 12.94 90.0245 13.03C90.1845 13.13 90.4345 13.23 90.7745 13.33C91.1145 13.44 91.4145 13.53 91.6845 13.59C91.9445 13.66 92.3445 13.75 92.8645 13.87C93.2045 13.95 93.4745 14.02 93.6845 14.07C93.8845 14.12 94.1445 14.19 94.4645 14.28C94.7845 14.37 95.0345 14.45 95.2345 14.53C95.4345 14.61 95.6545 14.72 95.9145 14.84C96.1745 14.97 96.3845 15.1 96.5445 15.24C96.7045 15.38 96.8645 15.54 97.0445 15.73C97.2145 15.92 97.3445 16.12 97.4445 16.33C97.5345 16.55 97.6145 16.79 97.6745 17.06C97.7345 17.34 97.7745 17.63 97.7745 17.95C97.7745 18.55 97.6545 19.1 97.4245 19.62C97.1945 20.14 96.8545 20.61 96.4045 21.01C95.9545 21.42 95.3645 21.74 94.6445 21.97C93.9245 22.21 93.1045 22.32 92.1945 22.32Z" fill="black" fill-opacity="0.9"/>
</svg>
