<svg width="100" height="30" viewBox="0 0 100 30" fill="none" xmlns="http://www.w3.org/2000/svg">
<path d="M0.54541 16.8399C0.54541 21.6626 2.66687 26.0126 6.06659 29.0822C7.87881 29.6769 9.82228 30 11.8467 30C21.6719 30 29.6363 22.3861 29.6363 12.9934C29.6363 8.40103 27.7324 4.23489 24.6365 1.17388C22.6319 0.415927 20.4475 0 18.1607 0C8.43255 0 0.54541 7.53996 0.54541 16.8399Z" fill="white"/>
<path d="M42.5162 9.48H38.1662V6.8H49.8762V9.48H45.5262V21H42.5162V9.48ZM58.92 14.32V18.23C58.92 18.7367 58.9466 19.24 59 19.74C59.06 20.2067 59.12 20.5333 59.18 20.72L59.27 21H56.55C56.4633 20.7133 56.3833 20.2967 56.31 19.75C55.5633 20.75 54.41 21.25 52.85 21.25C51.71 21.25 50.8233 20.99 50.19 20.47C49.5566 19.95 49.24 19.2133 49.24 18.26C49.24 17.3933 49.5133 16.7033 50.06 16.19C50.28 15.97 50.5733 15.7767 50.94 15.61C51.5066 15.35 52.2066 15.1533 53.04 15.02C53.3533 14.9733 53.5933 14.94 53.76 14.92L54.44 14.83L55.02 14.73C55.34 14.6633 55.6333 14.5367 55.9 14.35C56.12 14.1767 56.23 13.91 56.23 13.55C56.23 13.2233 56.0766 12.9367 55.77 12.69C55.47 12.43 55.01 12.3 54.39 12.3C53.1766 12.3 52.4966 12.7833 52.35 13.75H49.67C49.71 13.0367 49.9266 12.42 50.32 11.9C51.0333 10.8933 52.3766 10.38 54.35 10.36C55.87 10.36 57.01 10.7 57.77 11.38C58.5366 12.06 58.92 13.04 58.92 14.32ZM54.16 16.63L53.58 16.75C53.0866 16.8633 52.7133 17.0267 52.46 17.24C52.2133 17.4533 52.09 17.75 52.09 18.13C52.09 18.53 52.2333 18.8367 52.52 19.05C52.8066 19.2633 53.2133 19.37 53.74 19.37C54.56 19.37 55.18 19.1333 55.6 18.66C56.02 18.1867 56.23 17.51 56.23 16.63V15.83C56.0233 16.0367 55.72 16.2067 55.32 16.34L54.81 16.49C54.7766 16.4967 54.73 16.5067 54.67 16.52C54.6166 16.5333 54.54 16.55 54.44 16.57C54.34 16.59 54.2466 16.61 54.16 16.63ZM63.5242 21H60.7042V6.8H63.5242V11.94C64.2575 10.8867 65.3275 10.36 66.7342 10.36C67.4209 10.36 68.0442 10.5 68.6042 10.78C69.1642 11.0533 69.6275 11.44 69.9942 11.94C70.7475 12.96 71.1242 14.25 71.1242 15.81C71.1242 16.8433 70.9609 17.76 70.6342 18.56C70.3075 19.3733 69.8075 20.0233 69.1342 20.51C68.4609 21.0033 67.6609 21.25 66.7342 21.25C65.3209 21.25 64.2509 20.7267 63.5242 19.68V21ZM65.9142 18.98C66.6609 18.98 67.2442 18.7067 67.6642 18.16C68.0909 17.6133 68.3042 16.83 68.3042 15.81C68.3042 14.79 68.0909 14.0067 67.6642 13.46C67.2442 12.9067 66.6609 12.63 65.9142 12.63C65.1742 12.63 64.5909 12.9067 64.1642 13.46C63.7375 14.0067 63.5242 14.79 63.5242 15.81C63.5242 16.83 63.7375 17.6133 64.1642 18.16C64.5909 18.7067 65.1742 18.98 65.9142 18.98ZM84.2006 19.27C82.9406 20.6367 81.2706 21.32 79.1906 21.32C77.1039 21.32 75.4273 20.6367 74.1606 19.27C72.8939 17.9033 72.2606 16.1133 72.2606 13.9C72.2606 11.6867 72.8939 9.89667 74.1606 8.53C75.4273 7.16333 77.1039 6.48 79.1906 6.48C81.2706 6.48 82.9406 7.16333 84.2006 8.53C85.4673 9.89667 86.1006 11.6867 86.1006 13.9C86.1006 16.1133 85.4673 17.9033 84.2006 19.27ZM77.7806 18.44C78.7273 18.8267 79.6639 18.8267 80.5906 18.44C81.6106 18.0133 82.3239 17.23 82.7306 16.09C82.9573 15.4567 83.0706 14.7267 83.0706 13.9C83.0706 13.0667 82.9573 12.34 82.7306 11.72C82.3239 10.5733 81.6106 9.78667 80.5906 9.36C79.6639 8.97333 78.7273 8.97333 77.7806 9.36C76.7473 9.78667 76.0306 10.5733 75.6306 11.72C75.4039 12.34 75.2906 13.0667 75.2906 13.9C75.2906 14.7267 75.4039 15.4567 75.6306 16.09C76.0373 17.23 76.7539 18.0133 77.7806 18.44ZM93.1278 21.32C91.2278 21.32 89.7811 20.89 88.7878 20.03C87.7945 19.1567 87.2978 18.0233 87.2978 16.63H90.3878C90.3878 17.3967 90.6311 17.9733 91.1178 18.36C91.6045 18.7467 92.2945 18.94 93.1878 18.94C94.0345 18.94 94.7011 18.7767 95.1878 18.45C95.6745 18.1167 95.9178 17.6267 95.9178 16.98C95.9178 16.6467 95.8545 16.3967 95.7278 16.23C95.6611 16.1433 95.6111 16.08 95.5778 16.04C95.5445 16 95.4911 15.9533 95.4178 15.9C95.3511 15.84 95.2645 15.7867 95.1578 15.74C94.9978 15.6667 94.8511 15.6033 94.7178 15.55C94.5511 15.4833 94.3578 15.42 94.1378 15.36C93.7711 15.2667 93.5445 15.21 93.4578 15.19L92.6178 14.99L91.5178 14.73C91.2445 14.6567 90.9011 14.55 90.4878 14.41C90.1345 14.29 89.8145 14.1567 89.5278 14.01C88.8478 13.6367 88.3645 13.23 88.0778 12.79C87.7111 12.23 87.5278 11.5633 87.5278 10.79C87.5278 9.49 88.0278 8.44667 89.0278 7.66C90.0211 6.87333 91.3411 6.48 92.9878 6.48C94.6878 6.48 96.0545 6.9 97.0878 7.74C98.1278 8.56667 98.6478 9.68333 98.6478 11.09H95.7278C95.7278 10.4167 95.4911 9.88333 95.0178 9.49C94.5445 9.09667 93.8845 8.9 93.0378 8.9C92.2778 8.9 91.6611 9.05667 91.1878 9.37C90.7211 9.67667 90.4878 10.1267 90.4878 10.72C90.4345 11.22 90.7011 11.6267 91.2878 11.94C91.4345 12.0267 91.6611 12.1133 91.9678 12.2C92.3878 12.32 92.6711 12.3967 92.8178 12.43L93.9178 12.68C94.2511 12.7467 94.6045 12.83 94.9778 12.93C95.3378 13.0233 95.6678 13.12 95.9678 13.22C96.3411 13.3467 96.6578 13.4767 96.9178 13.61C97.6045 13.99 98.0778 14.3933 98.3378 14.82C98.7045 15.38 98.8878 16.0567 98.8878 16.85C98.8878 18.0767 98.4345 19.11 97.5278 19.95C97.0745 20.3767 96.4678 20.7133 95.7078 20.96C94.9478 21.2 94.0878 21.32 93.1278 21.32Z" fill="white" fill-opacity="0.96"/>
</svg>
