<svg width="13" height="12" viewBox="0 0 13 12" fill="none" xmlns="http://www.w3.org/2000/svg">
<g clip-path="url(#clip0_878_9046)">
<mask id="mask0_878_9046" style="mask-type:luminance" maskUnits="userSpaceOnUse" x="0" y="0" width="13" height="12">
<path d="M0 0H12.1993V12H0V0Z" fill="white"/>
</mask>
<g mask="url(#mask0_878_9046)">
<path d="M10.9319 0H0.633728C0.285169 0 0 0.285708 0 0.634924V1.77777C0 2.12699 0.285169 2.4127 0.633728 2.4127H10.9002C11.2487 2.4127 11.5339 2.12699 11.5339 1.77777V0.634924C11.5656 0.285708 11.2804 0 10.9319 0ZM10.9319 6.38095H0.633728C0.285169 6.38095 0 6.66666 0 7.01587V8.15872C0 8.50794 0.285169 8.79365 0.633728 8.79365H10.9002C11.2487 8.79365 11.5339 8.50794 11.5339 8.15872V7.01587C11.5656 6.66666 11.2804 6.38095 10.9319 6.38095ZM6.43238 9.5873H0.633728C0.285169 9.5873 0 9.87301 0 10.2222V11.3651C0 11.7143 0.285169 12 0.633728 12H6.43238C6.78094 12 7.06611 11.7143 7.06611 11.3651V10.2222C7.06611 9.87301 6.78094 9.5873 6.43238 9.5873ZM11.5656 3.20635H0.633728C0.285169 3.20635 0 3.49206 0 3.84126V4.98413C0 5.33332 0.285169 5.61905 0.633728 5.61905H11.5656C11.9142 5.61905 12.1993 5.33332 12.1993 4.98413V3.84126C12.1993 3.49206 11.9142 3.20635 11.5656 3.20635Z" fill="#0BA4DB"/>
</g>
</g>
<defs>
<clipPath id="clip0_878_9046">
<rect width="12.1993" height="12" fill="white"/>
</clipPath>
</defs>
</svg>
