<svg width="25" height="24" viewBox="0 0 25 24" fill="none" xmlns="http://www.w3.org/2000/svg">
<g clip-path="url(#clip0_556_3022)">
<path d="M11.392 3.26401C11.8019 2.27846 13.1981 2.27846 13.608 3.26401L15.3926 7.55465C15.5654 7.97014 15.9561 8.25402 16.4047 8.28998L21.0368 8.66133C22.1007 8.74663 22.5322 10.0744 21.7215 10.7688L18.1924 13.792C17.8506 14.0847 17.7014 14.544 17.8058 14.9817L18.884 19.5019C19.1317 20.5402 18.0022 21.3608 17.0912 20.8044L13.1255 18.3822C12.7415 18.1476 12.2585 18.1476 11.8745 18.3822L7.90876 20.8044C6.99784 21.3608 5.86834 20.5402 6.11601 19.5019L7.19423 14.9817C7.29864 14.544 7.14939 14.0847 6.80765 13.792L3.27847 10.7688C2.46782 10.0744 2.89926 8.74663 3.96324 8.66133L8.59535 8.28998C9.0439 8.25402 9.43463 7.97014 9.60744 7.55465L11.392 3.26401Z" fill="black" fill-opacity="0.04"/>
<g clip-path="url(#clip1_556_3022)">
<path d="M11.392 3.26401C11.8019 2.27846 13.1981 2.27846 13.608 3.26401L15.3926 7.55465C15.5654 7.97014 15.9561 8.25402 16.4047 8.28998L21.0368 8.66133C22.1007 8.74663 22.5322 10.0744 21.7215 10.7688L18.1924 13.792C17.8506 14.0847 17.7014 14.544 17.8058 14.9817L18.884 19.5019C19.1317 20.5402 18.0022 21.3608 17.0912 20.8044L13.1255 18.3822C12.7415 18.1476 12.2585 18.1476 11.8745 18.3822L7.90876 20.8044C6.99784 21.3608 5.86834 20.5402 6.11601 19.5019L7.19423 14.9817C7.29864 14.544 7.14939 14.0847 6.80765 13.792L3.27847 10.7688C2.46782 10.0744 2.89926 8.74663 3.96324 8.66133L8.59535 8.28998C9.0439 8.25402 9.43463 7.97014 9.60744 7.55465L11.392 3.26401Z" fill="black" fill-opacity="0.9"/>
</g>
</g>
<defs>
<clipPath id="clip0_556_3022">
<rect width="24" height="24" fill="white" transform="translate(0.5)"/>
</clipPath>
<clipPath id="clip1_556_3022">
<rect width="24" height="24" fill="white" transform="translate(0.5)"/>
</clipPath>
</defs>
</svg>
