<?xml version="1.0" encoding="UTF-8"?>
<svg id="Layer_2" data-name="Layer 2" xmlns="http://www.w3.org/2000/svg" viewBox="0 0 191.72 54.42">
  <g id="Layer_1-2" data-name="Layer 1">
    <g>
      <g>
        <path d="M70.86,18.01h-9.05v-5.58h24.38v5.58h-9.05v23.98h-6.27V18.01Z"/>
        <path d="M108.49,28.08v8.14c0,1.05,.06,2.1,.17,3.14,.12,.97,.25,1.65,.38,2.04l.19,.58h-5.66c-.18-.6-.35-1.46-.5-2.6-1.55,2.08-3.96,3.12-7.2,3.12-2.37,0-4.22-.54-5.54-1.62-1.32-1.08-1.98-2.62-1.98-4.6,0-1.8,.57-3.24,1.71-4.31,.46-.46,1.07-.86,1.83-1.21,1.18-.54,2.64-.95,4.37-1.23,.65-.1,1.15-.17,1.5-.21l1.42-.19,1.21-.21c.67-.14,1.28-.4,1.83-.79,.46-.36,.69-.92,.69-1.67,0-.68-.32-1.28-.96-1.79-.62-.54-1.58-.81-2.87-.81-2.53,0-3.94,1.01-4.25,3.02h-5.58c.08-1.49,.53-2.77,1.35-3.85,1.49-2.09,4.28-3.16,8.39-3.21,3.16,0,5.54,.71,7.13,2.12,1.59,1.42,2.38,3.46,2.38,6.12Zm-9.91,4.81l-1.21,.25c-1.03,.24-1.8,.58-2.32,1.02s-.78,1.06-.78,1.85c0,.83,.3,1.47,.9,1.92,.6,.44,1.44,.67,2.54,.67,1.71,0,3-.49,3.87-1.48,.87-.98,1.31-2.39,1.31-4.23v-1.67c-.43,.43-1.06,.78-1.89,1.06l-1.06,.31c-.07,.01-.16,.04-.28,.06-.12,.03-.28,.06-.49,.1-.21,.04-.4,.08-.58,.12Z"/>
        <path d="M118.09,41.99h-5.87V12.43h5.87v10.7c1.53-2.19,3.75-3.29,6.68-3.29,1.43,0,2.73,.29,3.89,.86,1.17,.58,2.13,1.38,2.89,2.43,1.57,2.12,2.35,4.81,2.35,8.06,0,2.15-.34,4.06-1.02,5.72-.68,1.69-1.72,3.05-3.12,4.06-1.4,1.03-3.07,1.54-5,1.54-2.94,0-5.17-1.09-6.68-3.27v2.75Zm4.98-4.2c1.55,0,2.77-.57,3.65-1.71,.88-1.14,1.32-2.77,1.32-4.89s-.44-3.76-1.32-4.9c-.88-1.15-2.1-1.72-3.65-1.72s-2.75,.57-3.64,1.72c-.89,1.14-1.33,2.78-1.33,4.9s.44,3.75,1.33,4.89c.89,1.14,2.1,1.71,3.64,1.71Z"/>
        <path d="M161.14,38.39c-2.62,2.84-6.1,4.27-10.43,4.27s-7.83-1.42-10.47-4.27-3.96-6.57-3.96-11.18,1.32-8.33,3.96-11.18,6.13-4.27,10.47-4.27,7.81,1.42,10.43,4.27c2.64,2.84,3.96,6.57,3.96,11.18s-1.32,8.33-3.96,11.18Zm-13.36-1.73c1.97,.8,3.92,.8,5.85,0,2.12-.89,3.61-2.52,4.45-4.89,.47-1.32,.71-2.84,.71-4.56s-.24-3.25-.71-4.54c-.85-2.39-2.33-4.02-4.45-4.91-1.93-.8-3.88-.8-5.85,0-2.15,.89-3.64,2.53-4.48,4.91-.47,1.29-.71,2.8-.71,4.54s.24,3.24,.71,4.56c.85,2.37,2.34,4,4.48,4.89Z"/>
        <path d="M179.73,42.65c-3.95,0-6.97-.89-9.03-2.68-2.07-1.82-3.1-4.18-3.1-7.08h6.43c0,1.6,.51,2.8,1.52,3.6s2.45,1.21,4.31,1.21c1.76,0,3.15-.34,4.16-1.03,1.01-.69,1.52-1.7,1.52-3.05,0-.69-.13-1.21-.4-1.56-.14-.18-.24-.31-.31-.4-.07-.08-.18-.18-.32-.3-.15-.12-.33-.23-.55-.32-.33-.15-.64-.28-.92-.4-.35-.14-.75-.27-1.21-.4-.76-.19-1.24-.31-1.42-.35l-1.75-.42-2.29-.54c-.57-.15-1.28-.38-2.14-.67-.74-.25-1.4-.53-2-.83-1.42-.78-2.42-1.62-3.02-2.54-.76-1.17-1.14-2.55-1.14-4.16,0-2.71,1.04-4.88,3.12-6.51,2.07-1.64,4.82-2.46,8.24-2.46s6.38,.88,8.53,2.62c2.17,1.72,3.25,4.05,3.25,6.97h-6.08c0-1.4-.49-2.51-1.48-3.33-.99-.82-2.36-1.23-4.12-1.23-1.58,0-2.87,.33-3.85,.98-.97,.64-1.46,1.57-1.46,2.81-.11,1.04,.44,1.89,1.67,2.54,.31,.18,.78,.36,1.42,.54,.87,.25,1.46,.41,1.77,.48l2.29,.52c.69,.14,1.43,.31,2.21,.52,.75,.19,1.44,.4,2.06,.6,.78,.26,1.44,.53,1.98,.81,1.43,.79,2.42,1.63,2.96,2.52,.76,1.17,1.14,2.57,1.14,4.23,0,2.55-.94,4.71-2.83,6.45-.94,.89-2.21,1.59-3.79,2.09-1.58,.51-3.37,.76-5.37,.76Z"/>
      </g>
      <path d="M0,30.54c0,8.75,3.68,16.64,9.57,22.21,3.14,1.08,6.51,1.67,10.02,1.67,17.04,0,30.85-13.81,30.85-30.85,0-8.33-3.3-15.89-8.67-21.44-3.48-1.37-7.26-2.13-11.23-2.13C13.68,0,0,13.68,0,30.54"/>
    </g>
  </g>
</svg>